<svg width="1920" height="1080" viewBox="0 0 1920 1080" fill="none" xmlns="http://www.w3.org/2000/svg">
<g clip-path="url(#clip0_300_1848)">
<rect width="1920" height="1080" fill="white"/>
<path opacity="0.8" d="M2035.63 119.429C2042.58 147.359 2048.09 177.191 2043.7 206.211C2039.61 232.728 2022.23 266.874 1994.72 274.877C1976.98 280.073 1962.99 259.527 1949.86 251.126C1865.94 196.874 1770.96 267.09 1682.98 241.782C1667.51 237.404 1652.46 228.06 1644.85 213.149C1636.93 197.616 1638.5 178.819 1642.7 161.841C1652.65 121.956 1674.68 88.8074 1697.16 55.3797C1716.98 26.0513 1754.87 -8.54936 1749.07 -48.0492C1746.68 -64.0067 1731.85 -74.6208 1725.31 -88.5643C1708.41 -125.12 1743.6 -159.61 1775.15 -170.122C1811.76 -182.343 1854.87 -176.263 1886.82 -153.14C1928.54 -122.914 1957.15 -41.8084 2018.33 -49.3466C2024.31 -50.0498 2030.71 -51.8956 2036.18 -49.5255C2044.09 -46.1613 2046.99 -35.5381 2044.97 -27.0683C2042.07 -14.2174 2034.21 -3.68503 2029.62 8.51578C2016.65 44.065 2026.36 81.9569 2035.63 119.429Z" fill="url(#paint0_linear_300_1848)"/>
<path d="M2030.54 793.292C2016.96 773.22 1996.33 759.899 1974.87 762.275C1959.51 763.949 1945.9 773.312 1934.18 784.488C1910.14 807.17 1889.58 836.966 1859.84 849.984C1844.5 856.693 1832.09 849.675 1823.83 833.303C1815.85 817.474 1806.46 799.73 1793.98 788.292C1753 750.704 1684.18 798.692 1670.83 846.297C1653.83 906.573 1746.45 963.747 1702.62 1015.86C1675.06 1048.56 1621.67 1054.95 1611.58 1106.09C1601.45 1157.04 1640.96 1198.97 1680.18 1212.35C1751.31 1236.43 1822.37 1195.22 1861.76 1129.74C1891.48 1080.45 1912.9 1025.27 1952.93 985.868C1992.38 946.987 2053.21 918.447 2047.8 844.423C2046.54 825.141 2040.02 807.388 2030.54 793.292Z" fill="url(#paint1_linear_300_1848)"/>
<path d="M363.473 980.435C356.756 968.048 347.64 956.639 336.445 946.86C300.301 915.567 252.322 903.18 206.902 894.053C190.589 890.793 174.596 878.896 181.473 860.152C186.591 846.625 193.468 835.216 189.469 819.895C174.596 763.665 94.3107 780.29 61.2051 804.249C46.1717 815.169 33.0574 830.163 15.3051 836.52C-7.88479 844.832 -34.913 839.29 -59.0625 842.713C-84.9712 846.462 -108.801 859.663 -124.314 881.177C-141.906 905.788 -138.388 940.015 -122.075 964.137C-96.0063 1002.44 -55.0642 1033.57 -20.0395 1062.91C21.7024 1097.95 67.9222 1137.72 118.3 1158.41C166.759 1178.3 224.814 1183.35 273.912 1162.98C318.213 1144.56 355.477 1109.19 370.67 1062.09C380.106 1033.89 376.588 1005.05 363.473 980.435Z" fill="url(#paint2_linear_300_1848)"/>
</g>
<defs>
<linearGradient id="paint0_linear_300_1848" x1="2034.37" y1="73.0303" x2="1625.32" y2="26.2276" gradientUnits="userSpaceOnUse">
<stop offset="2.54313e-07" stop-color="#00E0FF"/>
<stop offset="1" stop-color="#9E00FF"/>
</linearGradient>
<linearGradient id="paint1_linear_300_1848" x1="2084.12" y1="739.349" x2="1514.46" y2="1073.73" gradientUnits="userSpaceOnUse">
<stop stop-color="#18FFD5"/>
<stop offset="0.955971" stop-color="#BC50FE"/>
</linearGradient>
<linearGradient id="paint2_linear_300_1848" x1="-135.869" y1="979.226" x2="376.056" y2="979.226" gradientUnits="userSpaceOnUse">
<stop stop-color="#5CF5FF"/>
<stop offset="1" stop-color="#C755DA"/>
</linearGradient>
<clipPath id="clip0_300_1848">
<rect width="1920" height="1080" fill="white"/>
</clipPath>
</defs>
</svg>
