<svg width="213" height="24" viewBox="0 0 213 24" fill="none" xmlns="http://www.w3.org/2000/svg">
<path d="M0.056 11.736C0.056 9.51733 0.536 7.544 1.496 5.816C2.456 4.06667 3.78933 2.712 5.496 1.752C7.224 0.770665 9.176 0.279999 11.352 0.279999C14.0187 0.279999 16.3013 0.983999 18.2 2.392C20.0987 3.8 21.368 5.72 22.008 8.152H15.992C15.544 7.21333 14.904 6.49867 14.072 6.008C13.2613 5.51733 12.3333 5.272 11.288 5.272C9.60267 5.272 8.23733 5.85867 7.192 7.032C6.14667 8.20533 5.624 9.77333 5.624 11.736C5.624 13.6987 6.14667 15.2667 7.192 16.44C8.23733 17.6133 9.60267 18.2 11.288 18.2C12.3333 18.2 13.2613 17.9547 14.072 17.464C14.904 16.9733 15.544 16.2587 15.992 15.32H22.008C21.368 17.752 20.0987 19.672 18.2 21.08C16.3013 22.4667 14.0187 23.16 11.352 23.16C9.176 23.16 7.224 22.68 5.496 21.72C3.78933 20.7387 2.456 19.384 1.496 17.656C0.536 15.928 0.056 13.9547 0.056 11.736ZM35.983 23.224C33.871 23.224 31.9297 22.7333 30.159 21.752C28.4097 20.7707 27.0123 19.4053 25.967 17.656C24.943 15.8853 24.431 13.9013 24.431 11.704C24.431 9.50667 24.943 7.53333 25.967 5.784C27.0123 4.03467 28.4097 2.66933 30.159 1.688C31.9297 0.706666 33.871 0.216 35.983 0.216C38.095 0.216 40.0257 0.706666 41.775 1.688C43.5457 2.66933 44.9323 4.03467 45.935 5.784C46.959 7.53333 47.471 9.50667 47.471 11.704C47.471 13.9013 46.959 15.8853 45.935 17.656C44.911 19.4053 43.5243 20.7707 41.775 21.752C40.0257 22.7333 38.095 23.224 35.983 23.224ZM35.983 18.232C37.775 18.232 39.2043 17.6347 40.271 16.44C41.359 15.2453 41.903 13.6667 41.903 11.704C41.903 9.72 41.359 8.14133 40.271 6.968C39.2043 5.77333 37.775 5.176 35.983 5.176C34.1697 5.176 32.719 5.76267 31.631 6.936C30.5643 8.10933 30.031 9.69867 30.031 11.704C30.031 13.688 30.5643 15.2773 31.631 16.472C32.719 17.6453 34.1697 18.232 35.983 18.232ZM55.9873 18.776H63.1553V23H50.5153V0.535999H55.9873V18.776ZM71.2373 18.776H78.4053V23H65.7653V0.535999H71.2373V18.776ZM86.4873 4.92V9.464H93.8153V13.688H86.4873V18.616H94.7753V23H81.0153V0.535999H94.7753V4.92H86.4873ZM113.24 7.64C112.834 6.89333 112.248 6.328 111.48 5.944C110.733 5.53867 109.848 5.336 108.824 5.336C107.053 5.336 105.634 5.92267 104.568 7.096C103.501 8.248 102.968 9.79467 102.968 11.736C102.968 13.8053 103.522 15.4267 104.632 16.6C105.762 17.752 107.309 18.328 109.272 18.328C110.616 18.328 111.746 17.9867 112.664 17.304C113.602 16.6213 114.285 15.64 114.712 14.36H107.768V10.328H119.672V15.416C119.266 16.7813 118.573 18.0507 117.592 19.224C116.632 20.3973 115.405 21.3467 113.912 22.072C112.418 22.7973 110.733 23.16 108.856 23.16C106.637 23.16 104.653 22.68 102.904 21.72C101.176 20.7387 99.8211 19.384 98.8398 17.656C97.8798 15.928 97.3997 13.9547 97.3997 11.736C97.3997 9.51733 97.8798 7.544 98.8398 5.816C99.8211 4.06667 101.176 2.712 102.904 1.752C104.632 0.770665 106.605 0.279999 108.824 0.279999C111.512 0.279999 113.773 0.930665 115.608 2.232C117.464 3.53333 118.69 5.336 119.288 7.64H113.24ZM128.175 4.92V9.464H135.503V13.688H128.175V18.616H136.463V23H122.703V0.535999H136.463V4.92H128.175ZM160.111 23H154.639L145.487 9.144V23H140.015V0.535999H145.487L154.639 14.456V0.535999H160.111V23ZM169.55 0.535999V23H164.078V0.535999H169.55ZM178.891 0.535999V13.976C178.891 15.32 179.222 16.3547 179.883 17.08C180.545 17.8053 181.515 18.168 182.795 18.168C184.075 18.168 185.057 17.8053 185.739 17.08C186.422 16.3547 186.763 15.32 186.763 13.976V0.535999H192.235V13.944C192.235 15.9493 191.809 17.6453 190.955 19.032C190.102 20.4187 188.95 21.464 187.499 22.168C186.07 22.872 184.47 23.224 182.699 23.224C180.929 23.224 179.339 22.8827 177.931 22.2C176.545 21.496 175.446 20.4507 174.635 19.064C173.825 17.656 173.419 15.9493 173.419 13.944V0.535999H178.891ZM204.206 23.224C202.563 23.224 201.091 22.9573 199.79 22.424C198.488 21.8907 197.443 21.1013 196.654 20.056C195.886 19.0107 195.48 17.752 195.438 16.28H201.262C201.347 17.112 201.635 17.752 202.126 18.2C202.616 18.6267 203.256 18.84 204.046 18.84C204.856 18.84 205.496 18.6587 205.966 18.296C206.435 17.912 206.67 17.3893 206.67 16.728C206.67 16.1733 206.478 15.7147 206.094 15.352C205.731 14.9893 205.272 14.6907 204.718 14.456C204.184 14.2213 203.416 13.9547 202.414 13.656C200.963 13.208 199.779 12.76 198.862 12.312C197.944 11.864 197.155 11.2027 196.494 10.328C195.832 9.45333 195.502 8.312 195.502 6.904C195.502 4.81333 196.259 3.18133 197.774 2.008C199.288 0.813333 201.262 0.216 203.694 0.216C206.168 0.216 208.163 0.813333 209.678 2.008C211.192 3.18133 212.003 4.824 212.11 6.936H206.19C206.147 6.21067 205.88 5.64533 205.39 5.24C204.899 4.81333 204.27 4.6 203.502 4.6C202.84 4.6 202.307 4.78133 201.902 5.144C201.496 5.48533 201.294 5.98667 201.294 6.648C201.294 7.37333 201.635 7.93867 202.318 8.344C203 8.74933 204.067 9.18667 205.518 9.656C206.968 10.1467 208.142 10.616 209.038 11.064C209.955 11.512 210.744 12.1627 211.406 13.016C212.067 13.8693 212.398 14.968 212.398 16.312C212.398 17.592 212.067 18.7547 211.406 19.8C210.766 20.8453 209.827 21.6773 208.59 22.296C207.352 22.9147 205.891 23.224 204.206 23.224Z" fill="black"/>
</svg>
