<svg width="240" height="99" viewBox="0 0 240 99" fill="none" xmlns="http://www.w3.org/2000/svg">
<rect x="0.5" y="0.5" width="239" height="98" rx="14.5" fill="black" stroke="white"/>
<path d="M80.4235 42.4545V57H77.3482V42.4545H80.4235ZM95.1199 42.4545V57H92.4636L86.1355 47.8452H86.0289V57H82.9537V42.4545H85.6525L91.9309 51.6023H92.0588V42.4545H95.1199ZM100.736 42.4545V57H97.6607V42.4545H100.736ZM107.895 57V42.4545H110.97V54.4645H117.206V57H107.895ZM132.043 49.7273C132.043 51.3134 131.742 52.6629 131.141 53.7756C130.544 54.8883 129.73 55.7382 128.698 56.3253C127.67 56.9077 126.515 57.1989 125.232 57.1989C123.939 57.1989 122.779 56.9053 121.752 56.3182C120.724 55.7311 119.912 54.8812 119.316 53.7685C118.719 52.6558 118.421 51.3087 118.421 49.7273C118.421 48.1411 118.719 46.7917 119.316 45.679C119.912 44.5663 120.724 43.7187 121.752 43.1364C122.779 42.5492 123.939 42.2557 125.232 42.2557C126.515 42.2557 127.67 42.5492 128.698 43.1364C129.73 43.7187 130.544 44.5663 131.141 45.679C131.742 46.7917 132.043 48.1411 132.043 49.7273ZM128.925 49.7273C128.925 48.6998 128.771 47.8333 128.463 47.1278C128.16 46.4223 127.732 45.8873 127.178 45.5227C126.624 45.1581 125.975 44.9759 125.232 44.9759C124.488 44.9759 123.84 45.1581 123.286 45.5227C122.732 45.8873 122.301 46.4223 121.993 47.1278C121.69 47.8333 121.539 48.6998 121.539 49.7273C121.539 50.7547 121.69 51.6212 121.993 52.3267C122.301 53.0322 122.732 53.5672 123.286 53.9318C123.84 54.2964 124.488 54.4787 125.232 54.4787C125.975 54.4787 126.624 54.2964 127.178 53.9318C127.732 53.5672 128.16 53.0322 128.463 52.3267C128.771 51.6212 128.925 50.7547 128.925 49.7273ZM143.966 47.1562C143.866 46.8106 143.727 46.5052 143.547 46.2401C143.367 45.9702 143.147 45.7429 142.886 45.5582C142.631 45.3688 142.337 45.2244 142.006 45.125C141.679 45.0256 141.317 44.9759 140.919 44.9759C140.175 44.9759 139.522 45.1605 138.959 45.5298C138.4 45.8991 137.964 46.4366 137.652 47.142C137.339 47.8428 137.183 48.6998 137.183 49.7131C137.183 50.7263 137.337 51.5881 137.645 52.2983C137.952 53.0085 138.388 53.5507 138.952 53.9247C139.515 54.294 140.18 54.4787 140.947 54.4787C141.643 54.4787 142.238 54.3556 142.73 54.1094C143.227 53.8584 143.606 53.5057 143.866 53.0511C144.131 52.5966 144.264 52.0592 144.264 51.4389L144.889 51.5312H141.139V49.2159H147.226V51.0483C147.226 52.3267 146.956 53.4252 146.416 54.3438C145.876 55.2576 145.133 55.9631 144.186 56.4602C143.239 56.9527 142.155 57.1989 140.933 57.1989C139.569 57.1989 138.372 56.8982 137.339 56.2969C136.307 55.6908 135.502 54.8314 134.925 53.7188C134.352 52.6013 134.065 51.2756 134.065 49.7415C134.065 48.5625 134.236 47.5114 134.577 46.5881C134.922 45.66 135.405 44.8741 136.025 44.2301C136.646 43.5862 137.368 43.0961 138.192 42.7599C139.015 42.4238 139.908 42.2557 140.869 42.2557C141.693 42.2557 142.46 42.3764 143.17 42.6179C143.881 42.8546 144.51 43.1908 145.059 43.6264C145.613 44.062 146.066 44.5805 146.416 45.1818C146.766 45.7784 146.991 46.4366 147.091 47.1562H143.966ZM162.902 49.7273C162.902 51.3134 162.602 52.6629 162 53.7756C161.404 54.8883 160.589 55.7382 159.557 56.3253C158.53 56.9077 157.374 57.1989 156.091 57.1989C154.798 57.1989 153.638 56.9053 152.611 56.3182C151.584 55.7311 150.771 54.8812 150.175 53.7685C149.578 52.6558 149.28 51.3087 149.28 49.7273C149.28 48.1411 149.578 46.7917 150.175 45.679C150.771 44.5663 151.584 43.7187 152.611 43.1364C153.638 42.5492 154.798 42.2557 156.091 42.2557C157.374 42.2557 158.53 42.5492 159.557 43.1364C160.589 43.7187 161.404 44.5663 162 45.679C162.602 46.7917 162.902 48.1411 162.902 49.7273ZM159.784 49.7273C159.784 48.6998 159.63 47.8333 159.323 47.1278C159.02 46.4223 158.591 45.8873 158.037 45.5227C157.483 45.1581 156.834 44.9759 156.091 44.9759C155.348 44.9759 154.699 45.1581 154.145 45.5227C153.591 45.8873 153.16 46.4223 152.852 47.1278C152.549 47.8333 152.398 48.6998 152.398 49.7273C152.398 50.7547 152.549 51.6212 152.852 52.3267C153.16 53.0322 153.591 53.5672 154.145 53.9318C154.699 54.2964 155.348 54.4787 156.091 54.4787C156.834 54.4787 157.483 54.2964 158.037 53.9318C158.591 53.5672 159.02 53.0322 159.323 52.3267C159.63 51.6212 159.784 50.7547 159.784 49.7273Z" fill="white"/>
</svg>
